<svg width="48" height="48" viewBox="0 0 48 48" fill="none" xmlns="http://www.w3.org/2000/svg">
<circle opacity="0.1" cx="24" cy="24" r="24" fill="#EA7BB7"/>
<path fill-rule="evenodd" clip-rule="evenodd" d="M36.3369 23.9531C36.3369 30.4805 30.9229 35.9062 24.3838 35.9062C22.8691 35.9062 21.4138 35.6141 20.0718 35.0838C20.5198 34.5785 20.902 34.0136 21.2052 33.4025C22.2016 33.7345 23.2701 33.9141 24.3838 33.9141C29.915 33.9141 34.3564 29.4844 34.3447 23.9531C34.333 18.4219 29.9033 13.9922 24.3721 13.9922C19.3916 13.9922 15.3233 17.5835 14.5624 22.3367C14.4862 22.3345 14.4097 22.3333 14.333 22.3333C13.7064 22.3333 13.0974 22.4085 12.5144 22.5503C13.2215 16.6575 18.3179 12 24.3721 12C30.9111 12 36.3369 17.4141 36.3369 23.9531ZM18.333 23.6586V23.4582C18.3129 23.4459 18.2926 23.4336 18.2724 23.4215C18.1925 23.0754 18.1494 22.7247 18.1494 22.3711C18.1494 20.2969 19.5791 18.7969 21.5713 18.7969C22.8252 18.7969 23.7979 19.5117 24.3838 20.5781C24.9697 19.5117 25.9541 18.7969 27.1963 18.7969C29.1885 18.7969 30.6182 20.2969 30.6182 22.3711C30.6182 25.4414 27.3486 28.2539 24.9697 29.8125C24.7939 29.9297 24.5596 30.082 24.4072 30.082C24.2752 30.082 24.0727 29.9676 23.8838 29.8608C23.8547 29.8444 23.826 29.8281 23.7979 29.8125C21.7356 28.5047 19.0517 26.2212 18.333 23.6586Z" fill="#EA7BB7"/>
<path d="M14.5068 35C13.9693 35 13.5145 34.6122 13.5145 34.0773V31.416H10.9372C10.4273 31.416 10 30.9881 10 30.4933C9.98627 29.9985 10.4273 29.5706 10.9372 29.5706H13.5145V26.9094C13.5145 26.3611 13.9693 26 14.5068 26C15.0305 26 15.4991 26.3611 15.4991 26.9094V29.5706H18.0488C18.5725 29.5706 18.9997 29.9985 18.9997 30.4933C18.9997 30.9881 18.5725 31.416 18.0488 31.416H15.4991V34.0773C15.4991 34.6122 15.0305 35 14.5068 35Z" fill="#EA7BB7"/>
</svg>
