<svg width="48" height="48" viewBox="0 0 48 48" fill="none" xmlns="http://www.w3.org/2000/svg">
<circle opacity="0.1" cx="24" cy="24" r="24" fill="#3AB454"/>
<path d="M24.7275 35.9062C31.2549 35.9062 36.6807 30.4805 36.6807 23.9531C36.6807 17.4141 31.2432 12 24.7158 12C18.6104 12 13.5127 16.6992 12.8564 22.6406C13.4307 22.5352 14.2627 22.4883 14.8838 22.5586C15.5283 17.6953 19.6533 13.9922 24.7158 13.9922C30.2354 13.9922 34.6885 18.4219 34.6885 23.9531C34.6885 26.5312 33.7275 28.875 32.1221 30.6211C30.9736 29.25 28.2549 27.9375 24.7158 27.9375C23.5908 27.9375 22.5596 28.0781 21.6338 28.3008C21.7744 28.8633 21.8447 29.4727 21.8447 30.0703C21.8447 31.8984 21.1768 33.5977 20.0518 34.9219C21.4932 35.5547 23.0752 35.9062 24.7275 35.9062ZM24.7158 25.9453C26.9658 25.9688 28.7354 24.0469 28.7354 21.5273C28.7354 19.1602 26.9541 17.2031 24.7158 17.2031C22.4658 17.2031 20.6729 19.1602 20.6963 21.5273C20.708 24.0469 22.4541 25.9219 24.7158 25.9453Z" fill="#3AB454"/>
<path d="M13.5802 34.1545C13.5802 34.6727 14.0047 35 14.5 35C14.9953 35 15.434 34.6727 15.434 34.1545V31.3318H18.1368C18.6179 31.3318 19 30.95 19 30.5C19 30.0364 18.6179 29.6545 18.1368 29.6545H15.434V26.8318C15.434 26.3273 14.9953 26 14.5 26C14.0047 26 13.5802 26.3273 13.5802 26.8318V29.6545H10.8632C10.3962 29.6545 10 30.0364 10 30.5C10 30.95 10.3962 31.3318 10.8632 31.3318H13.5802V34.1545Z" fill="#3AB454"/>
</svg>
