<svg width="48" height="48" viewBox="0 0 48 48" fill="none" xmlns="http://www.w3.org/2000/svg">
<circle opacity="0.1" cx="24" cy="24" r="24" fill="#4291EE"/>
<path d="M23.9531 35.9062C30.4922 35.9062 35.9062 30.4805 35.9062 23.9531C35.9062 17.4141 30.4805 12 23.9414 12C17.4141 12 12 17.4141 12 23.9531C12 30.4805 17.4258 35.9062 23.9531 35.9062ZM23.9531 33.9141C18.4219 33.9141 14.0039 29.4844 14.0039 23.9531C14.0039 18.4219 18.4102 13.9922 23.9414 13.9922C29.4727 13.9922 33.9023 18.4219 33.9141 23.9531C33.9258 29.4844 29.4844 33.9141 23.9531 33.9141ZM23.9414 23.5898C25.6055 23.6016 26.9531 22.1836 26.9531 20.3086C26.9531 18.5508 25.6055 17.0859 23.9414 17.0859C22.2773 17.0859 20.9297 18.5508 20.9297 20.3086C20.9297 22.1836 22.2773 23.5781 23.9414 23.5898ZM18.5859 29.8945H29.2969C29.7656 29.8945 29.9883 29.5898 29.9883 29.1562C29.9883 27.8789 28.0547 24.5508 23.9414 24.5508C19.8281 24.5508 17.8945 27.8789 17.8945 29.1562C17.8945 29.5898 18.1172 29.8945 18.5859 29.8945Z" fill="#4291EE"/>
</svg>
