<svg width="48" height="48" viewBox="0 0 48 48" fill="none" xmlns="http://www.w3.org/2000/svg">
<circle opacity="0.1" cx="24" cy="24" r="24" fill="#E9992B"/>
<path d="M23.9531 35.9062C30.4922 35.9062 35.9062 30.4805 35.9062 23.9531C35.9062 17.4141 30.4805 12 23.9414 12C17.4141 12 12 17.4141 12 23.9531C12 30.4805 17.4258 35.9062 23.9531 35.9062ZM23.9531 33.9141C18.4219 33.9141 14.0039 29.4844 14.0039 23.9531C14.0039 18.4219 18.4102 13.9922 23.9414 13.9922C29.4727 13.9922 33.9023 18.4219 33.9141 23.9531C33.9258 29.4844 29.4844 33.9141 23.9531 33.9141ZM21.1406 18.7969C19.1484 18.7969 17.7188 20.2969 17.7188 22.3711C17.7188 25.4414 20.9648 28.2891 23.3672 29.8125C23.5781 29.9297 23.8242 30.082 23.9766 30.082C24.1289 30.082 24.3633 29.9297 24.5391 29.8125C26.918 28.2539 30.1875 25.4414 30.1875 22.3711C30.1875 20.2969 28.7578 18.7969 26.7656 18.7969C25.5234 18.7969 24.5391 19.5117 23.9531 20.5781C23.3672 19.5117 22.3945 18.7969 21.1406 18.7969Z" fill="#E9992B"/>
</svg>
